# xmcd
#
# Track frame offsets:
# 150
# 10606
# 19492
# 33393
# 46862
# 58825
# 69365
# 80215
# 90599
# 102859
# 113697
# 123807
#
# Disc length: 1780 seconds
#
#
# Revision: 0
# Processed by: cddbd v1.5.1PL0 Copyright (c) Steve Scherf et al.
# Submitted via: FreeRIP 2.942 
#
DISCID=9106f20c
DTITLE=Charlie Moore and The Dixie Partners - On A High High Mountain
DYEAR=1997
DGENRE=Gospel
TTITLE0=On A High High Mountain
TTITLE1=When The Wagon Was New
TTITLE2=I'll Live With God
TTITLE3=Let Me Walk Lord By Your Side
TTITLE4=God Put A Rainbow In The Clouds
TTITLE5=Praise God I'm Ready To Go
TTITLE6=He Will Set Your Fields On Fire
TTITLE7=This World Can't Stand Long
TTITLE8=My Home In The Sky
TTITLE9=Whiskey Is The Devil
TTITLE10=Dust On The Bible
TTITLE11=Take A Message To Mother
EXTD=Old Homestead Records
EXTT0=
EXTT1=
EXTT2=
EXTT3=
EXTT4=
EXTT5=
EXTT6=
EXTT7=
EXTT8=
EXTT9=
EXTT10=
EXTT11=
PLAYORDER=
